<svg width="1732" height="1287" viewBox="0 0 1732 1287" fill="none" xmlns="http://www.w3.org/2000/svg">
<path d="M0.294695 0L0.000488281 82.3317L0 1286.5H1732V1205.34L1732 83.5078V79.9793V28.8161V25.5816V3.82254V0L0.294695 0ZM1620.79 15.2902H1646.39V22.9352H1620.79V15.2902ZM1617.26 15.2902V26.1697H1649.92V15.2902H1658.45C1656.68 19.9948 1651.68 39.6956 1672.57 59.6905C1685.81 72.6283 1698.76 75.5687 1707.88 75.5687C1711.7 75.5687 1714.94 74.9806 1717 74.3925V80.2734H1709.05V112.912H1717L1717 1176.53H1709.05V1209.17H1717V1215.05C1709.93 1213.28 1691.4 1211.52 1672.57 1229.75C1654.33 1247.39 1656.09 1264.45 1657.86 1271.8H1650.21V1262.68H1617.26V1271.21H116.212V1261.51H83.8489V1271.21H75.6111C77.3763 1265.03 80.6126 1246.8 61.195 1227.99C40.8947 1208.28 21.1829 1211.81 15.2987 1213.58V1207.4H24.7134V1174.76H15.2987L15.2992 111.442H24.7138V78.8032H15.2992V72.6283C17.3587 73.2164 20.8892 74.0985 25.8907 74.0985C35.0111 74.0985 47.9562 71.1581 61.1955 58.2202C80.3189 39.6956 77.671 21.465 75.6116 14.9961H83.8494V24.6995H116.506V15.2902H1617.26ZM1687.87 1271.21C1686.99 1267.68 1686.69 1259.74 1695.52 1251.51C1704.64 1242.69 1713.17 1243.28 1717 1243.86V1271.21H1687.87ZM1674.34 1271.21C1673.16 1266.51 1671.69 1254.45 1684.93 1241.51C1698.75 1227.99 1711.99 1229.75 1716.7 1230.93V1240.63C1711.99 1239.75 1702.58 1239.75 1692.87 1249.16C1683.75 1257.98 1683.46 1266.8 1684.04 1271.5H1674.34V1271.21ZM1661.1 1271.21C1659.33 1265.33 1656.68 1249.16 1674.92 1231.81C1693.75 1213.87 1711.41 1216.52 1717 1218.28V1227.69C1711.11 1226.52 1696.99 1225.63 1682.87 1239.45C1669.04 1252.69 1669.63 1265.62 1671.1 1271.5H1661.1V1271.21ZM1717 1205.34H1712.29V1179.76H1717V1205.34ZM1717 109.383H1712.29V83.8019H1717V109.383ZM1717 44.9884C1713.47 45.8705 1704.64 46.1645 1695.52 37.3433C1683.75 26.1697 1688.46 15.8782 1688.46 15.2902H1687.87H1717V44.9884ZM1693.17 39.9897C1700.52 47.3407 1707.88 48.8109 1713.17 48.8109C1714.64 48.8109 1716.11 48.8109 1717 48.5169V58.2202C1712.29 59.3964 1699.05 60.8666 1685.22 47.6347C1668.45 31.1684 1674.92 16.4663 1675.22 15.5842L1674.34 15.2902H1684.93C1684.04 18.5246 1681.69 29.1101 1693.17 39.9897ZM1682.57 49.9871C1692.87 59.9845 1703.17 62.3368 1710.23 62.3368C1712.88 62.3368 1715.23 62.0428 1716.7 61.7487V71.1581C1711.11 72.6283 1693.17 75.5687 1674.63 57.6322C1652.56 36.4612 1661.39 16.7604 1661.69 15.8782L1660.8 15.5842H1671.1C1670.22 19.4067 1666.39 34.4029 1682.57 49.9871ZM1646.39 1271.21H1620.79V1266.21H1646.39V1271.21ZM112.975 1271.21H87.3794V1264.74H112.975V1271.21ZM72.0811 15.2902C73.5521 19.7008 77.9652 37.3433 58.8418 55.8679C38.2473 75.8627 18.5355 70.276 15.2992 69.0998V59.9845C17.0645 60.5726 19.7123 60.8666 23.2428 60.8666C30.3038 60.8666 40.601 58.5143 50.8982 48.5169C65.6086 34.1088 63.8433 20.5829 62.3723 15.2902H72.0811ZM58.8418 15.2902C60.0186 18.8187 63.2549 32.0505 48.5446 46.1645C32.9516 61.4547 17.9471 57.3381 15.2992 56.456V47.0467C16.4761 47.3407 18.2413 47.6347 20.595 47.6347C25.5965 47.6347 32.9516 45.8705 40.601 38.8135C50.604 29.1101 50.0156 19.7008 49.133 15.2902H58.8418ZM45.3083 15.2902C46.1909 18.2306 47.662 26.7578 37.9531 36.1671C27.3617 46.4586 17.0645 44.1062 15.005 43.2241V15.2902H45.3083ZM15.2992 82.3317H21.1834V107.913H15.2992V82.3317ZM15.2987 1178.29H21.1829V1203.87H15.2987V1178.29ZM15.2987 1242.98C17.3582 1242.39 27.6554 1239.75 38.2469 1250.04C48.2499 1259.74 46.4846 1268.56 45.602 1271.21H15.2987V1242.98ZM40.6005 1247.69C29.7149 1237.4 19.4176 1238.57 15.2987 1239.45V1230.04C17.9466 1229.16 32.9511 1225.05 48.5441 1240.34C63.5486 1254.74 60.0182 1267.98 58.8413 1271.5H48.8383C50.0151 1267.09 50.6035 1257.68 40.6005 1247.69ZM50.8977 1237.69C35.3048 1222.69 20.3003 1225.05 15.2987 1226.22V1217.11C18.2408 1216.22 38.2469 1210.34 58.8413 1230.34C78.5532 1249.45 73.5517 1267.39 72.0806 1271.21H62.3718C63.8428 1265.92 65.9023 1252.1 50.8977 1237.69ZM87.0856 15.2902H112.682V21.465H87.0856V15.2902ZM11.7688 11.7617L11.7683 1274.74H1720.23L1720.23 11.7617H11.7688ZM1728.76 3.5285L1728.76 1283.27H3.53048L3.53097 3.5285H1728.76Z" fill="#F9DCA0"/>
</svg>
