<svg width="437" height="396" viewBox="0 0 437 396" fill="none" xmlns="http://www.w3.org/2000/svg">
<g opacity="0.2">
<path d="M218.5 395.485C110.36 395.485 22.1831 306.919 22.1831 198.299C22.1831 89.1233 110.36 0.556946 218.5 0.556946C326.641 0.556946 414.818 89.1233 414.818 197.742C414.818 306.919 326.641 395.485 218.5 395.485ZM218.5 6.12716C113.132 6.12716 27.7288 92.4654 27.7288 198.299C27.7288 304.133 113.132 389.915 218.5 389.915C323.868 389.915 409.272 304.133 409.272 198.299C409.272 92.4654 323.868 6.12716 218.5 6.12716Z" fill="#FCEDD0"/>
<path d="M388.198 295.221H48.8022L218.5 80.2111L219.055 81.3251L388.198 295.221ZM52.6842 292.993H384.316L218.5 82.9962L52.6842 292.993Z" fill="#FCEDD0"/>
<path d="M218.5 315.831L217.946 314.717L48.8022 100.821H388.198L218.5 315.831ZM52.6842 102.492L218.5 312.489L384.316 102.492H52.6842Z" fill="#FCEDD0"/>
<path d="M218.5 83.5532C195.763 83.5532 176.907 65.1715 176.907 41.7766C176.907 18.9387 195.208 0 218.5 0C241.237 0 260.093 18.3817 260.093 41.7766C259.538 65.1715 241.237 83.5532 218.5 83.5532ZM218.5 6.12723C198.535 6.12723 182.453 22.2808 182.453 42.3336C182.453 62.3864 198.535 78.54 218.5 78.54C238.464 78.54 254.547 62.3864 254.547 42.3336C254.547 22.2808 238.464 6.12723 218.5 6.12723Z" fill="#FCEDD0"/>
<path d="M118.123 56.8161C104.259 56.8161 93.1675 45.6757 93.1675 31.7502C93.1675 17.8246 104.259 6.6842 118.123 6.6842C131.987 6.6842 143.079 17.8246 143.079 31.7502C143.079 45.6757 131.987 56.8161 118.123 56.8161ZM118.123 8.91229C105.368 8.91229 95.3858 18.9387 95.3858 31.7502C95.3858 44.5616 105.368 54.588 118.123 54.588C130.878 54.588 140.86 44.5616 140.86 31.7502C140.86 18.9387 130.878 8.91229 118.123 8.91229Z" fill="#FCEDD0"/>
<path d="M24.9556 222.808C11.0914 222.808 0 211.668 0 197.742C0 184.374 11.0914 173.234 24.9556 173.234C38.8198 173.234 49.9112 184.374 49.9112 198.299C49.3566 211.668 38.2652 222.808 24.9556 222.808ZM24.9556 174.905C12.2005 174.905 2.21827 184.931 2.21827 197.742C2.21827 210.554 12.2005 220.58 24.9556 220.58C37.7107 220.58 47.6929 210.554 47.6929 197.742C47.6929 185.488 37.1561 174.905 24.9556 174.905Z" fill="#FCEDD0"/>
<path d="M412.044 222.809C398.18 222.809 387.089 211.668 387.089 197.743C387.089 183.817 398.18 172.677 412.044 172.677C425.909 172.677 437 183.817 437 197.743C437 211.668 425.909 222.809 412.044 222.809ZM412.044 174.905C399.289 174.905 389.307 184.931 389.307 197.743C389.307 210.554 399.289 220.58 412.044 220.58C424.8 220.58 434.782 210.554 434.782 197.743C434.782 185.488 424.8 174.905 412.044 174.905Z" fill="#FCEDD0"/>
<path d="M320.541 56.8161C306.676 56.8161 295.585 45.6757 295.585 31.7502C295.585 17.8246 306.676 6.6842 320.541 6.6842C334.405 6.6842 345.496 17.8246 345.496 31.7502C345.496 45.6757 334.405 56.8161 320.541 56.8161ZM320.541 8.91229C307.785 8.91229 297.803 18.9387 297.803 31.7502C297.803 44.5616 307.785 54.588 320.541 54.588C333.296 54.588 343.832 44.5616 343.832 31.7502C343.832 18.9387 333.296 8.91229 320.541 8.91229Z" fill="#FCEDD0"/>
<path d="M118.123 389.358C104.259 389.358 93.1675 378.217 93.1675 364.292C93.1675 350.366 104.259 339.226 118.123 339.226C131.987 339.226 143.079 350.366 143.079 364.292C143.079 378.217 131.987 389.358 118.123 389.358ZM118.123 341.454C105.368 341.454 95.3858 351.48 95.3858 364.292C95.3858 377.103 105.368 387.13 118.123 387.13C130.878 387.13 140.86 377.103 140.86 364.292C140.86 351.48 130.878 341.454 118.123 341.454Z" fill="#FCEDD0"/>
<path d="M320.541 389.358C306.676 389.358 295.585 378.217 295.585 364.292C295.585 350.366 306.676 339.226 320.541 339.226C334.405 339.226 345.496 350.366 345.496 364.292C345.496 378.217 334.405 389.358 320.541 389.358ZM320.541 341.454C307.785 341.454 297.803 351.48 297.803 364.292C297.803 377.103 307.785 387.13 320.541 387.13C333.296 387.13 343.278 377.103 343.278 364.292C343.832 351.48 333.296 341.454 320.541 341.454Z" fill="#FCEDD0"/>
<path d="M94.2768 223.923C79.858 223.923 68.7666 212.225 68.7666 198.3C68.7666 183.817 80.4125 172.677 94.2768 172.677C108.696 172.677 119.787 184.374 119.787 198.3C120.341 212.225 108.696 223.923 94.2768 223.923ZM94.2768 174.348C80.9671 174.348 70.4303 184.931 70.4303 198.3C70.4303 211.668 80.9671 222.252 94.2768 222.252C107.586 222.252 118.123 211.668 118.123 198.3C118.123 184.931 107.586 174.348 94.2768 174.348Z" fill="#FCEDD0"/>
<path d="M342.724 223.923C328.305 223.923 317.213 212.225 317.213 198.3C317.213 183.817 328.859 172.677 342.724 172.677C357.142 172.677 368.234 184.374 368.234 198.3C368.234 212.225 356.588 223.923 342.724 223.923ZM342.724 174.348C329.414 174.348 318.877 184.931 318.877 198.3C318.877 211.668 329.414 222.252 342.724 222.252C356.033 222.252 366.57 211.668 366.57 198.3C366.57 184.931 355.479 174.348 342.724 174.348Z" fill="#FCEDD0"/>
<path d="M218.5 394.371C195.763 394.371 176.907 375.989 176.907 353.708C176.907 330.871 195.208 313.046 218.5 313.046C241.237 313.046 260.093 331.428 260.093 353.708C259.538 375.989 241.237 394.371 218.5 394.371ZM218.5 318.059C198.535 318.059 182.453 334.213 182.453 353.708C182.453 373.204 198.535 389.358 218.5 389.358C238.464 389.358 254.547 373.204 254.547 353.708C254.547 333.656 238.464 318.059 218.5 318.059Z" fill="#FCEDD0"/>
<path d="M219.055 101.935H217.391V198.3H219.055V101.935Z" fill="#FCEDD0"/>
<path d="M195.734 110.585L194.127 111.017L217.378 198.178L218.985 197.745L195.734 110.585Z" fill="#FCEDD0"/>
<path d="M180.212 130.283L178.771 131.119L217.591 198.652L219.032 197.817L180.212 130.283Z" fill="#FCEDD0"/>
<path d="M167.821 146.05L166.645 147.231L218.015 198.828L219.191 197.647L167.821 146.05Z" fill="#FCEDD0"/>
<path d="M155.752 160.996L154.92 162.443L217.834 198.928L218.665 197.481L155.752 160.996Z" fill="#FCEDD0"/>
<path d="M143.609 176.812L143.178 178.426L218.17 198.608L218.601 196.994L143.609 176.812Z" fill="#FCEDD0"/>
<path d="M311.113 198.856H124.778L218.5 79.0969L219.054 80.211L311.113 198.856ZM217.391 197.185H307.231L218.5 82.439L128.66 197.185H217.391Z" fill="#FCEDD0"/>
<path d="M239.581 110.574L216.339 197.743L217.946 198.176L241.188 111.006L239.581 110.574Z" fill="#FCEDD0"/>
<path d="M255.356 130.006L216.599 197.579L218.04 198.413L256.798 130.841L255.356 130.006Z" fill="#FCEDD0"/>
<path d="M268.04 145.539L216.67 197.136L217.847 198.318L269.217 146.721L268.04 145.539Z" fill="#FCEDD0"/>
<path d="M279.833 160.874L216.883 197.301L217.714 198.749L280.664 162.322L279.833 160.874Z" fill="#FCEDD0"/>
<path d="M294.134 177.52L217.226 196.939L217.631 198.56L294.54 179.14L294.134 177.52Z" fill="#FCEDD0"/>
<path d="M219.055 197.185H217.391V293.55H219.055V197.185Z" fill="#FCEDD0"/>
<path d="M217.482 196.78L194.231 283.94L195.838 284.372L219.089 197.212L217.482 196.78Z" fill="#FCEDD0"/>
<path d="M217.891 196.649L179.134 264.221L180.575 265.055L219.333 197.483L217.891 196.649Z" fill="#FCEDD0"/>
<path d="M217.665 196.315L166.288 247.905L167.464 249.086L218.841 197.497L217.665 196.315Z" fill="#FCEDD0"/>
<path d="M217.698 196.544L154.755 232.985L155.586 234.433L218.528 197.992L217.698 196.544Z" fill="#FCEDD0"/>
<path d="M218.019 196.08L143.027 216.262L143.458 217.876L218.45 197.694L218.019 196.08Z" fill="#FCEDD0"/>
<path d="M218.065 197.013L216.461 197.459L240.597 284.958L242.2 284.512L218.065 197.013Z" fill="#FCEDD0"/>
<path d="M218.056 196.582L216.615 197.417L255.99 265.915L257.43 265.08L218.056 196.582Z" fill="#FCEDD0"/>
<path d="M218.104 196.235L216.927 197.417L269.081 249.802L270.258 248.62L218.104 196.235Z" fill="#FCEDD0"/>
<path d="M281.166 235.063L217.945 198.3L218.5 196.628L281.721 233.392L281.166 235.063Z" fill="#FCEDD0"/>
<path d="M217.466 196.294L217.036 197.909L294.17 218.667L294.601 217.053L217.466 196.294Z" fill="#FCEDD0"/>
<path d="M228.482 197.742C228.482 203.313 224.046 207.769 218.5 207.769C212.954 207.769 208.518 203.313 208.518 197.742C208.518 192.172 212.954 187.716 218.5 187.716C224.046 188.273 228.482 192.729 228.482 197.742Z" fill="#FCEDD0"/>
<path d="M100.931 198.3C100.931 202.199 98.1584 204.984 94.2764 204.984C90.3944 204.984 87.6216 202.199 87.6216 198.3C87.6216 194.4 90.3944 191.615 94.2764 191.615C98.1584 191.615 100.931 194.4 100.931 198.3Z" fill="#FCEDD0"/>
<path d="M349.379 198.3C349.379 202.199 346.606 204.984 342.724 204.984C338.842 204.984 336.069 202.199 336.069 198.3C336.069 194.4 338.842 191.615 342.724 191.615C346.606 191.615 349.379 194.4 349.379 198.3Z" fill="#FCEDD0"/>
<path d="M225.155 353.151C225.155 357.051 222.382 359.836 218.5 359.836C214.618 359.836 211.845 357.051 211.845 353.151C211.845 349.252 214.618 346.467 218.5 346.467C222.382 346.467 225.155 349.252 225.155 353.151Z" fill="#FCEDD0"/>
<path d="M225.155 42.3337C225.155 46.2328 222.382 49.0179 218.5 49.0179C214.618 49.0179 211.845 46.2328 211.845 42.3337C211.845 38.4345 214.618 35.6494 218.5 35.6494C222.382 35.6494 225.155 38.4345 225.155 42.3337Z" fill="#FCEDD0"/>
<path d="M125.887 31.7502C125.887 35.6494 123.114 38.4345 119.232 38.4345C115.35 38.4345 112.577 35.6494 112.577 31.7502C112.577 27.8511 115.35 25.066 119.232 25.066C123.114 25.066 125.887 28.4081 125.887 31.7502Z" fill="#FCEDD0"/>
<path d="M327.195 31.7502C327.195 35.6494 324.423 38.4345 320.541 38.4345C316.659 38.4345 313.886 35.6494 313.886 31.7502C313.886 27.8511 316.659 25.066 320.541 25.066C324.423 25.066 327.195 28.4081 327.195 31.7502Z" fill="#FCEDD0"/>
<path d="M125.887 364.292C125.887 368.191 123.114 370.976 119.232 370.976C115.35 370.976 112.577 368.191 112.577 364.292C112.577 360.393 115.35 357.608 119.232 357.608C123.114 357.608 125.887 360.393 125.887 364.292Z" fill="#FCEDD0"/>
<path d="M31.6104 197.185C31.6104 201.085 28.8376 203.87 24.9556 203.87C21.0736 203.87 18.3008 201.085 18.3008 197.185C18.3008 193.286 21.0736 190.501 24.9556 190.501C28.283 190.501 31.6104 193.286 31.6104 197.185Z" fill="#FCEDD0"/>
<path d="M418.699 197.185C418.699 201.085 415.926 203.87 412.045 203.87C408.163 203.87 405.39 201.085 405.39 197.185C405.39 193.286 408.163 190.501 412.045 190.501C415.926 190.501 418.699 193.286 418.699 197.185Z" fill="#FCEDD0"/>
<path d="M327.195 364.292C327.195 368.191 324.423 370.976 320.541 370.976C316.659 370.976 313.886 368.191 313.886 364.292C313.886 360.393 316.659 357.608 320.541 357.608C324.423 357.608 327.195 360.393 327.195 364.292Z" fill="#FCEDD0"/>
<path d="M218.5 394.371L217.945 393.257L60.4478 198.299L61.0023 197.742L218.5 2.22803L376.552 198.299L375.997 198.857L218.5 394.371ZM62.666 198.299L218.5 391.586L374.334 198.299L218.5 5.01313L62.666 198.299Z" fill="#FCEDD0"/>
<path d="M216.282 316.945L124.223 199.971V196.629L216.282 79.6541H220.718L311.667 196.629V199.971L220.718 316.945H216.282ZM130.323 197.743L218.5 310.261L306.122 197.743L218.5 85.2243L130.323 197.743Z" fill="#FCEDD0"/>
</g>
<g filter="url(#filter0_d_73_33432)">
<path d="M280.866 229.867C279.525 229.867 278.146 229.788 276.727 229.591C258.123 227.071 250.634 211.678 251.541 198.41C252.447 184.749 262.222 170.064 281.496 170.064H282.797L283.703 171.009C284.965 172.309 296.474 183.529 309.717 170.891C310.939 169.75 312.831 169.789 314.014 171.009C315.157 172.23 315.117 174.12 313.895 175.301C308.456 180.497 302.544 183.056 296.356 182.86C288.552 182.663 282.6 178.175 280.314 176.167C269.396 176.6 262.498 183.096 259.424 190.773C259.739 190.97 259.976 191.206 260.212 191.521C267.386 201.245 272.115 198.292 273.653 197.308C280.156 193.214 288.276 193.568 294.267 198.214C299.982 202.623 302.189 209.631 300.021 216.56C297.42 224.906 290.719 229.867 282.166 229.867C281.733 229.867 281.339 229.867 280.866 229.867ZM257.65 197.977C257.611 198.253 257.611 198.529 257.571 198.843C256.822 209.709 262.735 221.599 277.515 223.607C279.013 223.804 280.55 223.882 281.969 223.804C290.443 223.804 293.36 217.465 294.188 214.709C295.607 210.221 294.227 205.851 290.522 202.977C286.541 199.906 281.141 199.67 276.806 202.426C273.101 204.788 265.848 207.072 257.65 197.977Z" fill="url(#paint0_linear_73_33432)"/>
<path d="M252.763 176.206C246.496 176.206 240.426 174.159 235.578 170.852C224.226 163.214 216.343 147.427 226 130.774L226.67 129.632L227.931 129.317C229.705 128.884 245.156 124.514 240.859 106.759C240.465 105.144 241.451 103.491 243.106 103.097C244.722 102.703 246.378 103.688 246.772 105.341C248.545 112.625 247.797 119.002 244.565 124.317C240.505 130.971 233.647 133.845 230.73 134.829C225.645 144.474 227.813 153.687 232.937 160.222C233.252 160.065 233.607 159.947 233.962 159.907C245.983 158.569 245.747 153.018 245.708 151.167C245.432 143.49 249.767 136.679 256.783 133.766C263.444 131.01 270.657 132.624 275.545 137.978C281.457 144.396 282.442 152.663 278.146 160.104C277.397 161.6 276.372 163.175 275.19 164.671C268.765 172.899 260.606 176.206 252.763 176.206ZM238.219 165.34C238.455 165.498 238.692 165.655 238.928 165.813C247.994 171.875 261.237 172.742 270.381 160.931C271.327 159.71 272.116 158.451 272.786 157.151C277.043 149.829 272.983 144.12 271.051 142.033C267.859 138.569 263.366 137.545 259.03 139.356C254.379 141.285 251.502 145.813 251.699 150.931C251.856 155.38 250.24 162.821 238.219 165.34Z" fill="url(#paint1_linear_73_33432)"/>
<path d="M189.344 174.277C180.003 174.277 170.346 170.025 164.079 159.159L163.409 158.017L163.764 156.758C164.276 155.025 168.217 139.474 150.678 134.317C149.062 133.845 148.155 132.152 148.628 130.577C149.101 128.963 150.796 128.057 152.373 128.53C159.586 130.656 164.749 134.475 167.705 139.908C171.449 146.758 170.504 154.12 169.912 157.112C175.746 166.324 184.811 169.041 193.049 167.899C193.049 167.545 193.167 167.191 193.285 166.836C198.133 155.773 193.207 153.175 191.591 152.309C184.772 148.726 181.027 141.561 182.052 134.002C182.998 126.837 188.004 121.443 195.099 119.869C203.652 117.979 211.298 121.246 215.555 128.687C216.461 130.105 217.329 131.758 218.038 133.53C225.133 150.852 215.555 165.065 203.612 170.931C199.355 173.017 194.389 174.277 189.344 174.277ZM199.671 125.459C198.37 125.459 197.227 125.656 196.439 125.813C191.827 126.837 188.713 130.223 188.083 134.868C187.413 139.868 189.896 144.632 194.428 146.994C198.37 149.081 203.967 154.199 200.183 165.852C200.459 165.734 200.695 165.616 200.971 165.498C210.786 160.695 218.117 149.671 212.481 135.853C211.889 134.435 211.219 133.097 210.431 131.876C207.396 126.601 202.942 125.459 199.671 125.459Z" fill="url(#paint2_linear_73_33432)"/>
<path d="M127.502 226.874C126.713 226.874 125.886 226.56 125.295 225.93C124.151 224.709 124.191 222.819 125.413 221.638C130.852 216.442 136.764 213.883 142.952 214.079C150.757 214.276 156.708 218.764 158.994 220.772C169.912 220.339 176.81 213.843 179.884 206.166C179.569 205.969 179.333 205.733 179.096 205.418C171.923 195.694 167.193 198.647 165.656 199.631C159.152 203.725 151.033 203.371 145.041 198.725C139.326 194.316 137.119 187.308 139.287 180.379C141.888 172.033 148.589 167.072 157.142 167.072C158.797 166.994 160.689 167.072 162.581 167.309C181.185 169.828 188.674 185.222 187.767 198.489C186.861 212.15 177.086 226.835 157.812 226.835H156.511L155.605 225.89C154.343 224.591 142.834 213.371 129.591 226.008C129 226.599 128.251 226.874 127.502 226.874ZM169.4 192.426C172.908 192.426 177.125 194.001 181.658 199.001C181.697 198.725 181.697 198.45 181.737 198.135C182.486 187.269 176.574 175.379 161.793 173.371C160.295 173.175 158.758 173.096 157.339 173.175C148.865 173.175 145.948 179.513 145.12 182.269C143.701 186.757 145.081 191.127 148.786 194.001C152.767 197.072 158.167 197.308 162.502 194.552C164.118 193.45 166.523 192.426 169.4 192.426Z" fill="url(#paint3_linear_73_33432)"/>
<path d="M195.572 293.92C194.192 293.92 192.97 292.976 192.616 291.598C190.842 284.314 191.591 277.937 194.823 272.622C198.882 265.968 205.741 263.094 208.657 262.11C213.742 252.465 211.574 243.252 206.45 236.717C206.135 236.874 205.78 236.992 205.425 237.032C193.404 238.37 193.64 243.921 193.68 245.772C193.956 253.449 189.62 260.26 182.604 263.173C175.943 265.929 168.73 264.315 163.842 258.96C157.93 252.543 156.945 244.276 161.241 236.835C161.99 235.339 163.015 233.764 164.197 232.268C175.667 217.465 192.773 218.646 203.809 226.048C215.161 233.685 223.044 249.472 213.387 266.126L212.717 267.267L211.456 267.582C209.682 268.015 194.232 272.385 198.528 290.141C198.922 291.755 197.937 293.409 196.281 293.802C196.045 293.881 195.808 293.92 195.572 293.92ZM186.624 226.756C180.397 226.756 174.051 229.394 168.927 236.008C167.981 237.229 167.193 238.488 166.523 239.788C162.266 247.11 166.326 252.819 168.257 254.905C171.45 258.37 175.943 259.394 180.279 257.583C184.93 255.653 187.807 251.126 187.61 246.008C187.452 241.559 189.068 234.158 201.09 231.599C200.853 231.441 200.617 231.284 200.38 231.126C196.399 228.449 191.551 226.756 186.624 226.756Z" fill="url(#paint4_linear_73_33432)"/>
<path d="M239.52 277.543C232.898 277.543 227.183 274.236 223.714 268.212C222.808 266.795 221.94 265.141 221.231 263.37C214.136 246.047 223.714 231.835 235.657 225.969C247.954 219.945 265.573 221.048 275.19 237.74L275.86 238.882L275.506 240.142C274.993 241.874 271.052 257.425 288.591 262.582C290.207 263.055 291.114 264.748 290.641 266.323C290.168 267.937 288.473 268.842 286.897 268.37C279.684 266.244 274.52 262.425 271.564 256.992C267.82 250.142 268.766 242.78 269.357 239.788C263.523 230.575 254.458 227.859 246.22 229C246.22 229.355 246.102 229.709 245.984 230.063C241.136 241.126 246.063 243.725 247.679 244.591C254.497 248.173 258.242 255.339 257.217 262.897C256.271 270.063 251.265 275.456 244.171 277.031C242.594 277.385 241.017 277.543 239.52 277.543ZM239.086 231.087C238.81 231.205 238.574 231.323 238.298 231.441C228.483 236.244 221.152 247.268 226.789 261.086C227.38 262.504 228.05 263.842 228.838 265.063C233.095 272.385 240.032 271.716 242.83 271.126C247.442 270.102 250.556 266.716 251.186 262.071C251.857 257.071 249.373 252.307 244.841 249.945C240.899 247.858 235.302 242.74 239.086 231.087Z" fill="url(#paint5_linear_73_33432)"/>
<path d="M219.654 227.898C217.21 227.898 214.767 227.268 212.599 226.008L199.276 218.371C194.941 215.851 192.221 211.166 192.221 206.166V190.812C192.221 185.773 194.941 181.127 199.276 178.608L212.559 170.931C216.895 168.411 222.334 168.411 226.67 170.931L239.953 178.608C244.289 181.127 247.008 185.812 247.008 190.812V206.166C247.008 211.205 244.289 215.851 239.953 218.371L226.67 226.048C224.542 227.268 222.098 227.898 219.654 227.898ZM219.654 175.104C218.275 175.104 216.856 175.458 215.634 176.167L202.351 183.844C199.868 185.261 198.331 187.938 198.331 190.812V206.166C198.331 209.04 199.868 211.717 202.351 213.135L215.634 220.812C218.117 222.229 221.191 222.229 223.674 220.812L236.957 213.135C239.44 211.717 240.978 209.04 240.978 206.166V190.812C240.978 187.938 239.44 185.261 236.957 183.844L223.674 176.167C222.453 175.458 221.034 175.104 219.654 175.104Z" fill="url(#paint6_linear_73_33432)"/>
<path d="M224.857 127.861C216.698 127.861 210.076 121.246 210.076 113.097C210.076 111.443 211.416 110.066 213.111 110.066C214.767 110.066 216.146 111.404 216.146 113.097C216.146 117.9 220.048 121.798 224.857 121.798C229.665 121.798 233.568 117.9 233.568 113.097C233.568 108.294 229.665 104.396 224.857 104.396C223.201 104.396 221.822 103.058 221.822 101.365C221.822 99.6721 223.162 98.3335 224.857 98.3335C233.016 98.3335 239.637 104.948 239.637 113.097C239.637 121.246 233.016 127.861 224.857 127.861Z" fill="url(#paint7_linear_73_33432)"/>
<path d="M147.84 166.167C145.317 166.167 142.795 165.537 140.469 164.198C139.011 163.372 138.538 161.521 139.366 160.065C140.193 158.608 142.046 158.136 143.504 158.962C147.682 161.364 153.003 159.947 155.408 155.773C157.812 151.6 156.393 146.285 152.215 143.884C150.205 142.703 147.84 142.427 145.593 143.018C143.347 143.608 141.455 145.065 140.312 147.073C139.484 148.529 137.631 149.002 136.173 148.175C134.715 147.348 134.242 145.498 135.069 144.041C137.04 140.616 140.233 138.175 144.056 137.152C147.879 136.128 151.86 136.64 155.25 138.608C162.305 142.663 164.71 151.718 160.65 158.766C157.93 163.49 152.964 166.167 147.84 166.167Z" fill="url(#paint8_linear_73_33432)"/>
<path d="M148.431 250.299C147.367 250.299 146.382 249.748 145.79 248.803C144.963 247.347 145.436 245.496 146.894 244.669C151.072 242.268 152.491 236.953 150.087 232.78C147.682 228.607 142.361 227.189 138.183 229.591C134.005 231.993 132.586 237.307 134.991 241.481C135.818 242.937 135.345 244.788 133.887 245.614C132.429 246.441 130.576 245.969 129.748 244.512C125.689 237.465 128.093 228.41 135.148 224.355C142.204 220.3 151.269 222.701 155.329 229.748C159.389 236.796 156.984 245.851 149.929 249.906C149.495 250.181 148.944 250.299 148.431 250.299Z" fill="url(#paint9_linear_73_33432)"/>
<path d="M214.254 299.353C206.095 299.353 199.474 292.739 199.474 284.59C199.474 276.44 206.095 269.826 214.254 269.826C222.413 269.826 229.035 276.44 229.035 284.59C229.035 286.243 227.695 287.621 226 287.621C224.305 287.621 222.965 286.283 222.965 284.59C222.965 279.787 219.063 275.889 214.254 275.889C209.446 275.889 205.544 279.787 205.544 284.59C205.544 289.393 209.446 293.291 214.254 293.291C215.91 293.291 217.289 294.629 217.289 296.322C217.289 297.976 215.91 299.353 214.254 299.353Z" fill="url(#paint10_linear_73_33432)"/>
<path d="M291.193 261.047C288.631 261.047 286.108 260.378 283.822 259.079C276.767 255.024 274.362 245.969 278.422 238.922C282.482 231.874 291.547 229.473 298.603 233.528C300.061 234.355 300.534 236.205 299.706 237.662C298.879 239.118 297.026 239.591 295.568 238.764C291.39 236.363 286.069 237.78 283.664 241.953C281.26 246.126 282.679 251.441 286.857 253.843C288.867 254.984 291.232 255.299 293.479 254.709C295.725 254.118 297.617 252.661 298.76 250.654C299.588 249.197 301.441 248.725 302.899 249.551C304.357 250.378 304.83 252.228 304.003 253.685C302.032 257.11 298.839 259.551 295.016 260.575C293.794 260.89 292.493 261.047 291.193 261.047Z" fill="url(#paint11_linear_73_33432)"/>
<path d="M296.553 175.34C291.429 175.34 286.463 172.702 283.743 167.978C279.683 160.931 282.088 151.876 289.143 147.821C290.601 146.994 292.454 147.466 293.281 148.923C294.109 150.38 293.636 152.23 292.178 153.057C288 155.458 286.581 160.773 288.985 164.946C291.39 169.12 296.711 170.537 300.889 168.135C305.067 165.734 306.486 160.419 304.081 156.246C303.253 154.789 303.726 152.939 305.185 152.112C306.643 151.285 308.496 151.758 309.323 153.214C313.383 160.261 310.979 169.316 303.924 173.371C301.598 174.671 299.075 175.34 296.553 175.34Z" fill="url(#paint12_linear_73_33432)"/>
<path d="M175.352 141.364C175.194 141.364 175.036 141.364 174.879 141.325C173.223 141.089 172.08 139.553 172.317 137.9C172.475 136.758 173.42 126.876 160.374 123.294C158.206 122.703 156.511 121.089 155.763 119.002C155.014 116.916 155.368 114.593 156.669 112.821C163.764 103.137 183.905 82.7039 217.92 101.877C219.378 102.704 219.891 104.554 219.063 106.011C218.235 107.467 216.383 107.979 214.925 107.152C186.309 90.9714 169.242 106.011 161.635 116.404C161.478 116.64 161.517 116.876 161.557 116.995C161.596 117.113 161.714 117.349 162.03 117.467C176.889 121.522 179.214 133.175 178.347 138.805C178.15 140.262 176.85 141.364 175.352 141.364Z" fill="url(#paint13_linear_73_33432)"/>
<path d="M176.928 122.388C176.258 122.388 175.588 122.191 175.037 121.719C173.736 120.695 173.499 118.806 174.524 117.467C178.623 112.27 190.211 104.042 204.637 110.302C206.174 110.971 206.884 112.743 206.214 114.278C205.544 115.814 203.77 116.522 202.233 115.853C188.556 109.947 179.687 120.774 179.293 121.207C178.702 122.034 177.835 122.388 176.928 122.388Z" fill="url(#paint14_linear_73_33432)"/>
<path d="M119.737 214.158C119.303 214.158 118.909 214.119 118.476 214.04C116.308 213.646 114.455 212.19 113.588 210.182C108.74 199.237 101.094 171.561 134.754 151.718C136.212 150.852 138.065 151.364 138.893 152.781C139.76 154.238 139.247 156.088 137.828 156.915C109.41 173.686 113.904 195.93 119.146 207.702C119.264 207.977 119.461 208.056 119.619 208.095C119.776 208.135 120.013 208.135 120.249 207.898C131.207 197.072 142.479 200.93 146.894 204.434C148.195 205.497 148.431 207.387 147.367 208.686C146.342 209.985 144.411 210.221 143.11 209.158C142.204 208.45 134.123 202.702 124.506 212.19C123.206 213.489 121.471 214.158 119.737 214.158Z" fill="url(#paint15_linear_73_33432)"/>
<path d="M129.354 199.001C128.172 199.001 127.029 198.292 126.556 197.111C124.073 190.97 122.772 176.836 135.385 167.506C136.725 166.521 138.617 166.797 139.642 168.135C140.627 169.474 140.351 171.364 139.011 172.387C126.95 181.324 132.153 194.749 132.192 194.907C132.823 196.442 132.074 198.214 130.497 198.844C130.103 198.922 129.709 199.001 129.354 199.001Z" fill="url(#paint16_linear_73_33432)"/>
<path d="M177.086 296.243C176.849 296.243 176.613 296.243 176.376 296.204C164.434 294.905 136.646 287.74 136.252 248.685C136.252 247.032 137.592 245.654 139.247 245.614H139.287C140.942 245.614 142.282 246.953 142.322 248.606C142.637 281.559 164.197 288.803 177.007 290.18C177.283 290.22 177.48 290.062 177.559 289.944C177.638 289.826 177.795 289.59 177.717 289.275C173.815 274.393 182.762 266.559 188.043 264.512C189.62 263.921 191.354 264.669 191.985 266.244C192.576 267.779 191.827 269.551 190.29 270.141C189.226 270.574 180.2 274.708 183.589 287.74C184.141 289.905 183.629 292.188 182.171 293.881C180.87 295.377 179.017 296.243 177.086 296.243Z" fill="url(#paint17_linear_73_33432)"/>
<path d="M171.962 278.488C171.804 278.488 171.686 278.488 171.528 278.448C164.946 277.504 152.057 271.598 150.244 256.008C150.047 254.354 151.229 252.858 152.924 252.661C154.58 252.465 156.078 253.646 156.275 255.339C158.009 270.26 172.238 272.464 172.395 272.504C174.051 272.74 175.194 274.275 174.957 275.929C174.721 277.385 173.46 278.488 171.962 278.488Z" fill="url(#paint18_linear_73_33432)"/>
<path d="M247.915 303.723C240.189 303.723 231.282 301.519 221.073 295.771C219.615 294.944 219.102 293.094 219.93 291.637C220.758 290.18 222.61 289.669 224.069 290.495C252.802 306.676 269.869 291.676 277.476 281.283C277.634 281.047 277.594 280.81 277.555 280.692C277.516 280.574 277.397 280.338 277.082 280.22C262.222 276.165 259.897 264.512 260.764 258.882C261.001 257.228 262.577 256.087 264.233 256.362C265.888 256.598 267.031 258.134 266.755 259.787C266.598 260.929 265.652 270.811 278.698 274.393C280.866 274.984 282.561 276.598 283.31 278.685C284.058 280.771 283.704 283.094 282.403 284.866C277.397 291.676 266.006 303.723 247.915 303.723Z" fill="url(#paint19_linear_73_33432)"/>
<path d="M244.88 289.59C241.648 289.59 238.14 288.921 234.474 287.346C232.937 286.677 232.228 284.905 232.898 283.37C233.568 281.834 235.341 281.126 236.879 281.795C250.556 287.7 259.424 276.874 259.818 276.441C260.843 275.141 262.774 274.905 264.075 275.968C265.376 276.992 265.612 278.881 264.587 280.22C261.474 284.078 254.3 289.59 244.88 289.59Z" fill="url(#paint20_linear_73_33432)"/>
<path d="M302.86 246.402C301.835 246.402 300.81 245.851 300.258 244.906C299.391 243.449 299.903 241.599 301.322 240.772C329.741 224.001 325.247 201.757 320.005 189.985C319.887 189.71 319.69 189.631 319.532 189.592C319.375 189.552 319.138 189.552 318.902 189.789C307.944 200.615 296.671 196.757 292.257 193.253C290.956 192.19 290.72 190.3 291.784 189.001C292.809 187.702 294.74 187.466 296.041 188.529C296.947 189.237 305.027 194.985 314.645 185.497C316.221 183.923 318.507 183.253 320.675 183.647C322.843 184.041 324.696 185.497 325.563 187.505C330.411 198.45 338.057 226.126 304.397 245.969C303.884 246.284 303.372 246.402 302.86 246.402Z" fill="url(#paint21_linear_73_33432)"/>
<path d="M301.913 230.811C301.007 230.811 300.061 230.378 299.47 229.591C298.484 228.252 298.76 226.363 300.1 225.339C312.161 216.402 306.958 202.977 306.919 202.82C306.288 201.284 307.037 199.513 308.614 198.883C310.151 198.253 311.925 199.001 312.555 200.576C315.039 206.717 316.339 220.851 303.726 230.182C303.175 230.615 302.544 230.811 301.913 230.811Z" fill="url(#paint22_linear_73_33432)"/>
<path d="M299.824 152.112C298.169 152.112 296.829 150.774 296.789 149.12C296.474 116.168 274.914 108.924 262.104 107.546C261.828 107.507 261.631 107.664 261.552 107.782C261.473 107.9 261.316 108.136 261.395 108.451C265.297 123.333 256.349 131.168 251.068 133.215C249.491 133.805 247.757 133.057 247.126 131.483C246.535 129.947 247.284 128.175 248.821 127.585C249.885 127.152 258.911 123.018 255.522 109.987C254.97 107.822 255.482 105.538 256.941 103.845C258.399 102.152 260.567 101.326 262.735 101.562C274.677 102.861 302.465 110.026 302.859 149.081C302.859 150.695 301.519 152.073 299.824 152.112Z" fill="url(#paint23_linear_73_33432)"/>
<path d="M285.832 145.104C284.295 145.104 282.994 143.963 282.837 142.427C281.102 127.506 266.874 125.302 266.716 125.262C265.061 125.026 263.918 123.491 264.154 121.837C264.391 120.184 265.928 119.042 267.583 119.278C274.165 120.223 287.054 126.128 288.867 141.719C289.064 143.372 287.882 144.868 286.187 145.065C286.069 145.065 285.951 145.104 285.832 145.104Z" fill="url(#paint24_linear_73_33432)"/>
</g>
<defs>
<filter id="filter0_d_73_33432" x="101.25" y="85.955" width="236.651" height="225.768" filterUnits="userSpaceOnUse" color-interpolation-filters="sRGB">
<feFlood flood-opacity="0" result="BackgroundImageFix"/>
<feColorMatrix in="SourceAlpha" type="matrix" values="0 0 0 0 0 0 0 0 0 0 0 0 0 0 0 0 0 0 127 0" result="hardAlpha"/>
<feOffset/>
<feGaussianBlur stdDeviation="4"/>
<feComposite in2="hardAlpha" operator="out"/>
<feColorMatrix type="matrix" values="0 0 0 0 0.960784 0 0 0 0 0.764706 0 0 0 0 0.372549 0 0 0 0.6 0"/>
<feBlend mode="normal" in2="BackgroundImageFix" result="effect1_dropShadow_73_33432"/>
<feBlend mode="normal" in="SourceGraphic" in2="effect1_dropShadow_73_33432" result="shape"/>
</filter>
<linearGradient id="paint0_linear_73_33432" x1="283.155" y1="170.063" x2="283.155" y2="229.867" gradientUnits="userSpaceOnUse">
<stop stop-color="#FEEFD0"/>
<stop offset="1" stop-color="#FCD587"/>
</linearGradient>
<linearGradient id="paint1_linear_73_33432" x1="251.224" y1="103.011" x2="251.224" y2="176.206" gradientUnits="userSpaceOnUse">
<stop stop-color="#FEEFD0"/>
<stop offset="1" stop-color="#FCD587"/>
</linearGradient>
<linearGradient id="paint2_linear_73_33432" x1="184.483" y1="119.343" x2="184.483" y2="174.277" gradientUnits="userSpaceOnUse">
<stop stop-color="#FEEFD0"/>
<stop offset="1" stop-color="#FCD587"/>
</linearGradient>
<linearGradient id="paint3_linear_73_33432" x1="156.153" y1="167.043" x2="156.153" y2="226.874" gradientUnits="userSpaceOnUse">
<stop stop-color="#FEEFD0"/>
<stop offset="1" stop-color="#FCD587"/>
</linearGradient>
<linearGradient id="paint4_linear_73_33432" x1="188.164" y1="220.722" x2="188.164" y2="293.92" gradientUnits="userSpaceOnUse">
<stop stop-color="#FEEFD0"/>
<stop offset="1" stop-color="#FCD587"/>
</linearGradient>
<linearGradient id="paint5_linear_73_33432" x1="254.786" y1="222.626" x2="254.786" y2="277.543" gradientUnits="userSpaceOnUse">
<stop stop-color="#FEEFD0"/>
<stop offset="1" stop-color="#FCD587"/>
</linearGradient>
<linearGradient id="paint6_linear_73_33432" x1="219.615" y1="169.041" x2="219.615" y2="227.898" gradientUnits="userSpaceOnUse">
<stop stop-color="#FEEFD0"/>
<stop offset="1" stop-color="#FCD587"/>
</linearGradient>
<linearGradient id="paint7_linear_73_33432" x1="224.857" y1="98.3335" x2="224.857" y2="127.861" gradientUnits="userSpaceOnUse">
<stop stop-color="#FEEFD0"/>
<stop offset="1" stop-color="#FCD587"/>
</linearGradient>
<linearGradient id="paint8_linear_73_33432" x1="148.643" y1="136.637" x2="148.643" y2="166.167" gradientUnits="userSpaceOnUse">
<stop stop-color="#FEEFD0"/>
<stop offset="1" stop-color="#FCD587"/>
</linearGradient>
<linearGradient id="paint9_linear_73_33432" x1="142.539" y1="222.385" x2="142.539" y2="250.299" gradientUnits="userSpaceOnUse">
<stop stop-color="#FEEFD0"/>
<stop offset="1" stop-color="#FCD587"/>
</linearGradient>
<linearGradient id="paint10_linear_73_33432" x1="214.254" y1="269.826" x2="214.254" y2="299.353" gradientUnits="userSpaceOnUse">
<stop stop-color="#FEEFD0"/>
<stop offset="1" stop-color="#FCD587"/>
</linearGradient>
<linearGradient id="paint11_linear_73_33432" x1="290.429" y1="231.558" x2="290.429" y2="261.047" gradientUnits="userSpaceOnUse">
<stop stop-color="#FEEFD0"/>
<stop offset="1" stop-color="#FCD587"/>
</linearGradient>
<linearGradient id="paint12_linear_73_33432" x1="296.533" y1="147.415" x2="296.533" y2="175.34" gradientUnits="userSpaceOnUse">
<stop stop-color="#FEEFD0"/>
<stop offset="1" stop-color="#FCD587"/>
</linearGradient>
<linearGradient id="paint13_linear_73_33432" x1="187.417" y1="93.955" x2="187.417" y2="141.364" gradientUnits="userSpaceOnUse">
<stop stop-color="#FEEFD0"/>
<stop offset="1" stop-color="#FCD587"/>
</linearGradient>
<linearGradient id="paint14_linear_73_33432" x1="190.176" y1="108.049" x2="190.176" y2="122.388" gradientUnits="userSpaceOnUse">
<stop stop-color="#FEEFD0"/>
<stop offset="1" stop-color="#FCD587"/>
</linearGradient>
<linearGradient id="paint15_linear_73_33432" x1="128.644" y1="151.294" x2="128.644" y2="214.158" gradientUnits="userSpaceOnUse">
<stop stop-color="#FEEFD0"/>
<stop offset="1" stop-color="#FCD587"/>
</linearGradient>
<linearGradient id="paint16_linear_73_33432" x1="132.58" y1="166.917" x2="132.58" y2="199.001" gradientUnits="userSpaceOnUse">
<stop stop-color="#FEEFD0"/>
<stop offset="1" stop-color="#FCD587"/>
</linearGradient>
<linearGradient id="paint17_linear_73_33432" x1="164.219" y1="245.614" x2="164.219" y2="296.243" gradientUnits="userSpaceOnUse">
<stop stop-color="#FEEFD0"/>
<stop offset="1" stop-color="#FCD587"/>
</linearGradient>
<linearGradient id="paint18_linear_73_33432" x1="162.605" y1="252.64" x2="162.605" y2="278.488" gradientUnits="userSpaceOnUse">
<stop stop-color="#FEEFD0"/>
<stop offset="1" stop-color="#FCD587"/>
</linearGradient>
<linearGradient id="paint19_linear_73_33432" x1="251.616" y1="256.321" x2="251.616" y2="303.723" gradientUnits="userSpaceOnUse">
<stop stop-color="#FEEFD0"/>
<stop offset="1" stop-color="#FCD587"/>
</linearGradient>
<linearGradient id="paint20_linear_73_33432" x1="248.935" y1="275.299" x2="248.935" y2="289.59" gradientUnits="userSpaceOnUse">
<stop stop-color="#FEEFD0"/>
<stop offset="1" stop-color="#FCD587"/>
</linearGradient>
<linearGradient id="paint21_linear_73_33432" x1="310.507" y1="183.537" x2="310.507" y2="246.402" gradientUnits="userSpaceOnUse">
<stop stop-color="#FEEFD0"/>
<stop offset="1" stop-color="#FCD587"/>
</linearGradient>
<linearGradient id="paint22_linear_73_33432" x1="306.532" y1="198.66" x2="306.532" y2="230.811" gradientUnits="userSpaceOnUse">
<stop stop-color="#FEEFD0"/>
<stop offset="1" stop-color="#FCD587"/>
</linearGradient>
<linearGradient id="paint23_linear_73_33432" x1="274.892" y1="101.522" x2="274.892" y2="152.112" gradientUnits="userSpaceOnUse">
<stop stop-color="#FEEFD0"/>
<stop offset="1" stop-color="#FCD587"/>
</linearGradient>
<linearGradient id="paint24_linear_73_33432" x1="276.506" y1="119.247" x2="276.506" y2="145.104" gradientUnits="userSpaceOnUse">
<stop stop-color="#FEEFD0"/>
<stop offset="1" stop-color="#FCD587"/>
</linearGradient>
</defs>
</svg>
